PathFileType	4	(X/Y/Z)	C:/Users/beibeiliu/ov580/test_trc\sequence.10_training_dense_left.trc
DataRate	CameraRate	NumFrames	NumMarkers	Units	OrigDataRate	OrigDataStartFrame	OrigNumFrames
120	120	10	19	mm	120	27	80
Frame#	Time	ThumbCMC			ThumbMCP			ThumbIP			ThumbTip			IndexMCP			IndexPIP			IndexTip			MiddleMCP			MiddlePIP			MiddleTip			RingMCP			RingPIP			RingTip			PinkyMCP			PinkyPIP			PinkyTip			BackHand1			BackHand2			BackHand3	
		X0	Y0	Z0	X1	Y1	Z1	X2	Y2	Z2	X3	Y3	Z3	X4	Y4	Z4	X5	Y5	Z5	X6	Y6	Z6	X7	Y7	Z7	X8	Y8	Z8	X9	Y9	Z9	X10	Y10	Z10	X11	Y11	Z11	X12	Y12	Z12	X13	Y13	Z13	X14	Y14	Z14	X15	Y15	Z15	X16	Y16	Z16	X17	Y17	Z17	X18	Y18	Z18	
26	0.216667	-164.957	43.723	148.086	-133.437	40.3422	137.518	-115.582	37.4485	118.123	-105.013	28.0332	98.7592	-160.503	49.2882	75.3504	-147.287	41.3597	51.7884	-130.58	34.2742	34.8534	-173.665	32.7969	60.9738	-160.31	37.7575	39.5706	-145.809	36.3632	14.9635	-174.473	15.1312	61.8527	-158.036	11.7927	39.1359	-135.316	8.4904	21.4148	-179.046	-10.3128	72.3	-160.769	-11.0341	52.8036	-145.861	-16.3114	34.7292	-203.333	7.86883	104.453	-219.38	6.33122	133.838	-198.763	37.8446	125.883	
27	0.225	-167.838	41.0416	149.181	-134.713	41.7788	142.038	-113.49	41.3699	118.11	-101.215	33.3442	98.6802	-163.137	45.6972	77.4891	-147.336	45.8914	51.7855	-137.187	34.9729	32.7843	-172.016	37.9137	62.9796	-162.83	36.9685	38.3614	-146.749	41.3768	12.0613	-176.471	12.8881	63.8336	-157.377	11.4973	39.4586	-138.862	8.00033	24.0188	-180.075	-10.0362	72.2429	-163.393	-9.7761	56.8973	-142.036	-14.1321	38.6002	-202.506	12.0485	109.168	-217.497	6.24337	135.262	-198.469	36.9981	124.962	
28	0.233333	-165.703	44.1719	150.415	-138.659	39.4804	142.347	-117.266	40.1123	121.904	-105.771	33.1335	102.342	-162.005	46.5549	76.3606	-149.247	42.7393	55.523	-135.2	34.4871	30.3621	-172.18	37.2208	68.5322	-159.881	38.6628	39.8664	-147.778	35.7984	18.0986	-174.051	14.6193	63.9329	-157.031	14.2338	41.7967	-137.099	10.0254	26.8477	-179.428	-5.92944	74.8871	-161.603	-10.8579	54.5685	-141.547	-13.523	37.8515	-204.638	9.88999	105.929	-218.569	8.79016	137.875	-201.192	37.8864	128.828	
29	0.241667	-167.972	42.0361	152.93	-139.454	39.0388	138.369	-116.149	43.2374	122.248	-104.916	34.2224	99.7851	-164.63	45.5246	77.8463	-148.419	44.6619	55.2359	-131.181	38.3877	33.5474	-174.747	33.2103	64.2537	-159.403	34.5211	40.5925	-139.282	33.2266	16.0649	-175.675	13.9541	65.0895	-158.827	11.1302	43.0655	-138.362	4.67552	26.5146	-180.114	-5.51425	75.3709	-164.476	-10.1798	52.8657	-144.28	-12.2716	36.8465	-205.152	12.7055	112.026	-216.278	8.69101	136.815	-201.769	38.6778	130.238	
30	0.25	-169.701	41.9247	145.699	-137.576	41.9008	133.748	-121.579	38.0106	116.483	-110.651	30.261	92.1578	-164.573	51.6978	72.2687	-151.282	44.8768	54.5483	-129.679	35.7277	33.2541	-176.929	32.5774	65.203	-158.571	31.4007	39.0122	-135.253	25.535	22.458	-179.622	13.6298	61.6425	-161.42	7.35549	40.006	-136.87	7.45889	27.0984	-183.785	-7.57197	71.8407	-170.948	-12.8746	53.2298	-149.76	-15.2715	30.7745	-209.448	9.83237	106.682	-218.988	6.97155	137.013	-204.838	37.9656	127.485	
31	0.258333	-169.181	40.1594	144.78	-136.261	35.7725	129.166	-123.299	31.9239	109.017	-111.23	25.8138	85.1815	-170.852	49.7748	69.2193	-153.654	49.6982	50.3955	-130.742	39.7592	34.0064	-177.993	33.1285	59.2217	-156.32	28.3774	38.831	-126.43	19.9648	29.4123	-185.789	9.16522	62.0604	-169.191	7.10687	40.9751	-141.661	2.77712	26.1747	-191.458	-11.5788	73.0884	-179.174	-17.0492	48.1475	-164.692	-19.166	29.9967	-212.291	10.0464	108.263	-218.738	7.67095	139.079	-203.218	40.4342	127.559	
32	0.266667	-166.474	39.0167	140.923	-137.902	30.6601	124.694	-120.982	26.6767	102.386	-118.4	16.9579	78.3506	-173.274	53.2232	72.4363	-154.734	47.8008	47.3462	-131.749	34.4094	34.571	-180.246	30.4911	60.9811	-156.637	24.2541	39.7815	-124.562	12.5319	42.0639	-189.102	13.5756	60.8842	-173.052	6.30149	38.8527	-145.14	0.22538	28.2077	-196.579	-11.4329	70.2959	-185.702	-12.5678	47.242	-170.48	-18.4526	24.5968	-214.131	11.2174	107.303	-218.69	9.54443	139.453	-204.733	35.7052	127.513	
33	0.275	-159.847	41.5888	142.119	-132.122	29.2449	122.265	-117.505	22.2394	96.5054	-116.66	12.6703	77.6786	-169.248	50.6031	70.2201	-151.052	45.5068	46.408	-126.276	30.5208	37.4367	-173.161	33.467	59.0101	-150.594	22.6979	42.4551	-122.15	7.73224	49.0803	-185.227	16.4575	58.5251	-169.082	7.79001	39.161	-139.204	-2.0013	30.5616	-197.072	-7.71671	66.1586	-185.721	-10.8474	46.1994	-175.96	-19.8526	24.1917	-210.199	18.8776	107.851	-216.424	15.1627	135.135	-201.296	41.6456	126.064	
34	0.283333	-155.829	40.9774	143.663	-125.617	27.5609	127.785	-113.205	19.6292	104.847	-112.735	7.95444	80.8232	-159.447	51.9105	72.8305	-137.85	41.5075	48.2141	-119.498	26.3122	41.5877	-164.519	33.1966	59.5881	-139.597	17.8228	46.2726	-112.147	0.863318	60.3213	-180.094	14.1381	60.8356	-157.399	7.47225	40.6454	-129.221	-6.59221	37.5305	-191.504	-7.18801	73.5155	-180.03	-12.9328	47.3314	-166.696	-19.6843	26.7414	-204.51	21.2461	108.8	-213.153	17.4632	139.512	-195.063	42.9339	126.327	
35	0.291667	-155.901	45.4465	145.906	-125.794	33.7149	127.082	-112.344	25.1618	108.32	-108.718	10.1517	86.6793	-157.016	50.0745	70.2689	-131.819	42.5665	49.4897	-112.527	26.7486	45.5738	-161.638	25.0333	59.4643	-132.727	16.8451	49.7573	-104.909	4.66451	64.554	-172.357	7.03446	62.4876	-146.851	-0.152651	44.9022	-119.784	-7.67143	46.814	-182	-13.2944	71.0046	-167.765	-20.7263	51.559	-154.204	-30.5672	36.0374	-202.385	14.6625	105.901	-212.296	13.9635	136.38	-193.819	40.6412	126.658	
